<svg xmlns="http://www.w3.org/2000/svg" viewBox="0 0 1600 760">
<defs>
<linearGradient id="sky" x1="0" y1="0" x2="0" y2="1">
<stop offset="0" stop-color="#0c2135"/><stop offset=".55" stop-color="#8f5d2b"/><stop offset=".77" stop-color="#d79c47"/><stop offset="1" stop-color="#061827"/>
</linearGradient>
<radialGradient id="sun"><stop offset="0" stop-color="#fff3bb"/><stop offset=".35" stop-color="#f6b94f" stop-opacity=".85"/><stop offset="1" stop-color="#f6b94f" stop-opacity="0"/></radialGradient>
</defs>
<rect width="1600" height="760" fill="url(#sky)"/>
<circle cx="1120" cy="360" r="170" fill="url(#sun)"/>
<g fill="#07111c">
<rect x="0" y="500" width="80" height="170"/><rect x="70" y="450" width="100" height="220"/>
<rect x="165" y="525" width="60" height="145"/><rect x="220" y="410" width="120" height="260"/>
<rect x="335" y="480" width="75" height="190"/><rect x="405" y="360" width="80" height="310"/>
<rect x="478" y="520" width="115" height="150"/><rect x="585" y="450" width="72" height="220"/>
<rect x="650" y="390" width="120" height="280"/><rect x="765" y="500" width="70" height="170"/>
<rect x="830" y="430" width="105" height="240"/><rect x="928" y="370" width="82" height="300"/>
<rect x="1005" y="520" width="80" height="150"/><rect x="1080" y="435" width="118" height="235"/>
<rect x="1190" y="480" width="85" height="190"/><rect x="1265" y="390" width="95" height="280"/>
<rect x="1350" y="520" width="60" height="150"/><rect x="1400" y="430" width="110" height="240"/>
<rect x="1500" y="500" width="100" height="170"/>
</g>
<g stroke="#cda251" stroke-width="4" fill="none" opacity=".75">
<path d="M0 530 C350 490 620 520 920 470 C1170 430 1390 360 1600 260"/>
<path d="M0 545 C350 505 620 535 920 485 C1170 445 1390 375 1600 275"/>
</g>
<rect y="670" width="1600" height="90" fill="#05101a"/>
<g fill="#d6a94d" opacity=".45">
<rect x="75" y="475" width="6" height="8"/><rect x="285" y="450" width="7" height="8"/><rect x="445" y="410" width="7" height="8"/>
<rect x="705" y="430" width="7" height="8"/><rect x="965" y="420" width="7" height="8"/><rect x="1130" y="460" width="7" height="8"/>
<rect x="1310" y="430" width="7" height="8"/><rect x="1460" y="455" width="7" height="8"/>
</g>
</svg>